<svg width="70" height="70" viewBox="0 0 70 70" fill="none" xmlns="http://www.w3.org/2000/svg">
<path d="M28.4895 44.2939L50.0405 22.743C50.8091 21.9744 50.8091 20.7283 50.0405 19.9597V19.9597C49.2719 19.1911 48.0258 19.1911 47.2572 19.9597L25.7062 41.5106" stroke="#FFD392" stroke-width="2"/>
<path d="M19.783 40.0933C17.7094 40.0565 15.7141 40.6684 14.0653 41.8217C13.3172 42.345 13.3428 43.4236 14.011 44.0918L25.9082 55.9889C26.5764 56.6571 27.6549 56.6827 28.1782 55.9346C29.3316 54.2858 29.9434 52.2905 29.9066 50.2169C29.8722 48.2797 29.3092 46.4426 28.2444 44.8275C28.178 44.7268 28.19 44.593 28.2753 44.5077L29.4728 43.3102C30.2414 42.5416 30.2414 41.2955 29.4728 40.5269C28.7042 39.7583 27.4581 39.7583 26.6895 40.5269L25.4919 41.7245C25.4066 41.8097 25.2728 41.8217 25.1722 41.7553C23.5571 40.6906 21.7202 40.1277 19.783 40.0933Z" stroke="#FF7E7E" stroke-width="2"/>
</svg>
