<svg width="70" height="70" viewBox="0 0 70 70" fill="none" xmlns="http://www.w3.org/2000/svg">
<path d="M54.539 32.5514V49.1403C54.539 51.1161 52.9373 52.7178 50.9615 52.7178H19.0384C17.0626 52.7178 15.4609 51.1161 15.4609 49.1403V32.5514C15.4609 30.8351 16.3412 29.2388 17.7927 28.3229L32.3317 19.1485C33.9618 18.1199 36.0381 18.1199 37.6682 19.1485L52.2072 28.3229C53.6587 29.2388 54.539 30.8351 54.539 32.5514Z" stroke="white" stroke-width="2"/>
<path d="M33.1138 48.5038C19.2366 41.4933 33.4346 33.0093 34.1643 25.5586C34.1857 25.3401 34.4611 25.2339 34.6185 25.387C46.5395 36.9795 44.0243 46.979 37.2567 48.1069" stroke="#FF7E7E" stroke-width="2" stroke-linecap="round"/>
<path d="M33.8553 45.1447C32.2597 43.3212 31.1908 41.4401 32.6554 38.6015C32.7393 38.4388 32.9659 38.4266 33.0826 38.5677C34.3494 40.0991 36.6401 41.0281 36.1817 35.5324C36.1641 35.3213 36.3952 35.1814 36.5613 35.3128C39.0727 37.298 40.8053 41.5843 36.826 45.1447" stroke="#FFE37E" stroke-width="2" stroke-linecap="round"/>
</svg>
