<svg width="70" height="70" viewBox="0 0 70 70" fill="none" xmlns="http://www.w3.org/2000/svg">
<path d="M32.8192 26.7532C31.891 25.2876 30.7208 23.6465 29.4666 21.5851C29.0716 20.9358 28.12 20.9225 27.7105 21.5627C24.5456 26.5098 22.2744 29.1083 22.2744 32.3928C22.2744 35.446 24.3283 38.0072 27.0964 38.7026M27.0964 38.7026C27.0675 39.033 27.0528 39.3667 27.0528 39.7049C27.0528 45.5594 31.6805 50.3055 37.3892 50.3055C43.0978 50.3055 47.7256 45.5594 47.7256 39.7049C47.7256 34.1545 43.3813 29.8046 38.2409 21.1561C37.8526 20.5028 36.9011 20.4876 36.4959 21.1305C31.3674 29.2686 27.543 33.6032 27.0964 38.7026Z" stroke="#9EE8FF" stroke-width="2" stroke-linejoin="round"/>
</svg>
