<svg width="70" height="70" viewBox="0 0 70 70" fill="none" xmlns="http://www.w3.org/2000/svg">
<path d="M54.4304 23.1488V39.8747C54.4304 41.7298 52.9265 43.2337 51.0714 43.2337H18.9286C17.0735 43.2337 15.5696 41.7298 15.5696 39.8747V23.1488C15.5696 21.5183 16.4058 20.0018 17.7847 19.1317L32.4651 9.86812C34.0138 8.89091 35.9862 8.89091 37.5348 9.86811L52.2153 19.1317C53.5942 20.0018 54.4304 21.5183 54.4304 23.1488Z" stroke="white" stroke-width="2.5"/>
<path d="M20.7878 49.4906H49.2121" stroke="white" stroke-width="2.5" stroke-linecap="round"/>
<path d="M22.29 54.4979H47.7107" stroke="white" stroke-width="2.5" stroke-linecap="round"/>
<path d="M38.1705 58.2653C39.2751 58.2653 40.2052 59.1928 39.7885 60.2158C39.7847 60.2251 39.7808 60.2345 39.7769 60.2439C39.5171 60.8712 39.1363 61.4411 38.6562 61.9212C38.176 62.4014 37.6061 62.7822 36.9788 63.042C36.3515 63.3019 35.6792 63.4356 35.0002 63.4356C34.3212 63.4356 33.6489 63.3019 33.0216 63.042C32.3943 62.7822 31.8243 62.4014 31.3442 61.9212C30.8641 61.4411 30.4832 60.8712 30.2234 60.2439C30.2195 60.2345 30.2157 60.2251 30.2119 60.2158C29.7952 59.1928 30.7253 58.2653 31.8298 58.2653L38.1705 58.2653Z" fill="white"/>
</svg>
