<svg width="70" height="70" viewBox="0 0 70 70" fill="none" xmlns="http://www.w3.org/2000/svg">
<mask id="path-1-inside-1_85_105" fill="white">
<path fill-rule="evenodd" clip-rule="evenodd" d="M32.7966 15.3894C30.5653 15.3894 28.7565 17.1982 28.7565 19.4295V38.9545C28.7565 39.3114 28.5634 39.6373 28.2679 39.8377C26.1247 41.2907 24.7163 43.7461 24.7163 46.5305C24.7163 50.9931 28.3339 54.6107 32.7965 54.6107C37.2591 54.6107 40.8767 50.9931 40.8767 46.5305C40.8767 43.7462 39.4684 41.2908 37.3252 39.8378C37.0298 39.6375 36.8367 39.3115 36.8367 38.9546V19.4295C36.8367 17.1982 35.0279 15.3894 32.7966 15.3894Z"/>
</mask>
<path d="M37.3252 39.8378L36.2029 41.4932L37.3252 39.8378ZM28.2679 39.8377L27.1456 38.1822L28.2679 39.8377ZM30.7565 19.4295C30.7565 18.3028 31.6699 17.3894 32.7966 17.3894V13.3894C29.4607 13.3894 26.7565 16.0936 26.7565 19.4295H30.7565ZM30.7565 38.9545V19.4295H26.7565V38.9545H30.7565ZM26.7163 46.5305C26.7163 44.4372 27.7725 42.5898 29.3902 41.4931L27.1456 38.1822C24.4769 39.9915 22.7163 43.0551 22.7163 46.5305H26.7163ZM32.7965 52.6107C29.4385 52.6107 26.7163 49.8885 26.7163 46.5305H22.7163C22.7163 52.0976 27.2294 56.6107 32.7965 56.6107V52.6107ZM38.8767 46.5305C38.8767 49.8885 36.1545 52.6107 32.7965 52.6107V56.6107C38.3636 56.6107 42.8767 52.0976 42.8767 46.5305H38.8767ZM36.2029 41.4932C37.8206 42.5899 38.8767 44.4372 38.8767 46.5305H42.8767C42.8767 43.0552 41.1162 39.9917 38.4476 38.1824L36.2029 41.4932ZM34.8367 19.4295V38.9546H38.8367V19.4295H34.8367ZM32.7966 17.3894C33.9233 17.3894 34.8367 18.3028 34.8367 19.4295H38.8367C38.8367 16.0936 36.1324 13.3894 32.7966 13.3894V17.3894ZM38.4476 38.1824C38.6348 38.3093 38.8367 38.5722 38.8367 38.9546H34.8367C34.8367 40.0509 35.4248 40.9656 36.2029 41.4932L38.4476 38.1824ZM26.7565 38.9545C26.7565 38.572 26.9583 38.3092 27.1456 38.1822L29.3902 41.4931C30.1684 40.9655 30.7565 40.0508 30.7565 38.9545H26.7565Z" fill="white" mask="url(#path-1-inside-1_85_105)"/>
<line x1="39.8086" y1="20.5044" x2="44.2836" y2="20.5044" stroke="#FF7E7E" stroke-width="2" stroke-linecap="round"/>
<line x1="39.8086" y1="26.344" x2="44.2836" y2="26.344" stroke="#FFBC7E" stroke-width="2" stroke-linecap="round"/>
<line x1="39.8086" y1="32.1835" x2="44.2836" y2="32.1835" stroke="#FFF27E" stroke-width="2" stroke-linecap="round"/>
<line x1="39.8086" y1="38.0231" x2="44.2836" y2="38.0231" stroke="#98FF7E" stroke-width="2" stroke-linecap="round"/>
</svg>
